# xmcd CD database file
#
# Track frame offsets:
#	150
#	13085
#	27868
#	40903
#	52696
#	63419
#	79206
#	99050
#	106514
#	120321
#	137485
#	146917
#	163460
#	176267
#	188429
#	201080
#	212527
#	226320
#	239788
#
# Disc length: 3429 seconds
#
# Revision: 1
# Processed by: cddbd v1.4PL0 Copyright (c) Steve Scherf et al.
# Submitted via: CDex 1.50beta10
#
DISCID=f20d6313
DTITLE=Various Artist - Prvni velky cesky country zpevnik S - T
DYEAR=2002
DGENRE=Country
TTITLE0=M.Tucny - Slamu v botach nosim
TTITLE1=J.Zoch - Smutny psani
TTITLE2=Drobek - Snidane v trave
TTITLE3=P.Pastova,Lava - Slecna sen
TTITLE4=Montgomery - Stara archa
TTITLE5=Drobek - Svuj
TTITLE6=Drobek - Soudce Lynch
TTITLE7=A-band - Sedm dostavniku
TTITLE8=Drobek - Sest bilych koni
TTITLE9=Drobek - Sefe
TTITLE10=Drobek - Slapej dal
TTITLE11=Drobek - Tam v dalce,tam v horach
TTITLE12=Drobek - Tam blizko Little Big Hornu
TTITLE13=Nada Urbankova,Drobek - Tak svou karu tahnem dal
TTITLE14=Drobek - Tenhle kun
TTITLE15=Montgomery - Tisic mil
TTITLE16=Drobek - To bylo tenkrat v Ontariu
TTITLE17=M.Hoffmann - Tom Dooley
TTITLE18=Drobek - To byly casy
EXTD=YEAR: 2002
EXTT0=
EXTT1=
EXTT2=
EXTT3=
EXTT4=
EXTT5=
EXTT6=
EXTT7=
EXTT8=
EXTT9=
EXTT10=
EXTT11=
EXTT12=
EXTT13=
EXTT14=
EXTT15=
EXTT16=
EXTT17=
EXTT18=
PLAYORDER=
